<svg width="221" height="261" viewBox="0 0 221 261" fill="none" xmlns="http://www.w3.org/2000/svg">
<path fill-rule="evenodd" clip-rule="evenodd" d="M159.999 7.69775C153.582 13.638 151.31 22.812 151.31 34.5C151.31 40.2428 151.381 51.3329 151.466 64.6287C151.7 101.123 152.039 154.236 151.31 159C150.317 165.5 145.206 197.5 110.31 197.5C75.4147 197.5 70.616 165 69.9994 159C69.7888 156.951 69.8296 133.467 69.8967 101.5C69.9005 97 64 94.9995 55.9995 103L5.49948 153.5C1.90816 157.091 0.338443 159.877 0.245557 165.836C0.245557 215.5 40.8086 260.5 110.31 260.5C186.206 260.5 220.81 205.5 220.81 159V34.5V9.81473e-07L186.06 9.81473e-07C173.707 3.18976e-06 165.39 2.70809 159.999 7.69775Z" fill="url(#paint0_linear_557_677)"/>
<path d="M32.0003 9.81473e-07H0.000167727L-0.000488281 144.422L0.245557 165.836C0.338443 159.877 1.90816 157.091 5.49948 153.5L55.9995 103C64 94.9995 69.9005 97 69.8967 101.5C69.8967 101.5 69.9181 76.0305 69.9214 74.5C69.9605 56.4972 69.9994 48.4531 69.9994 34.5C69.9994 0 48.2542 9.81473e-07 32.0003 9.81473e-07Z" fill="url(#paint1_linear_557_677)"/>
<path d="M32.0003 9.81473e-07H0.000167727L-0.000488281 144.422L0.245557 165.836C0.338443 159.877 1.90816 157.091 5.49948 153.5L55.9995 103C64 94.9995 69.9005 97 69.8967 101.5C69.8967 101.5 69.9181 76.0305 69.9214 74.5C69.9605 56.4972 69.9994 48.4531 69.9994 34.5C69.9994 0 48.2542 9.81473e-07 32.0003 9.81473e-07Z" fill="#61DAFB"/>
<defs>
<linearGradient id="paint0_linear_557_677" x1="0.000982455" y1="-10" x2="149.001" y2="181" gradientUnits="userSpaceOnUse">
<stop stop-color="#205DAE"/>
<stop offset="1" stop-color="#61DAFB"/>
</linearGradient>
<linearGradient id="paint1_linear_557_677" x1="0.000982455" y1="-10" x2="149.001" y2="181" gradientUnits="userSpaceOnUse">
<stop stop-color="#205DAE"/>
<stop offset="1" stop-color="#61DAFB"/>
</linearGradient>
</defs>
</svg>
